# xmcd
#
# Track frame offsets:
#  150
#  23538
#  42831
#  59561
#  79234
#  105914
#  129504
#  145438
#  167667
#  186443
#  198477
#  217249
#  234791
#  255901
#  273609
#  298508
#  320813
#  339065
#
# Disc length: 4776 seconds
#
# Revision: 0
# Processed by: cddbd v1.5.1PL2 Copyright (c) Steve Scherf et al.
# Submitted via: Collectorz.com_Music_Collector 6.11
#
DISCID=0812a612
DTITLE=Various Artist - Your Top 100 [CD5)
DYEAR=2002
DGENRE=Reader's Digest Compilation
TTITLE0=Tina Turner - Better Be Good To Me
TTITLE1=Chris De Burgh (1948-    ) - Lady In Red
TTITLE2=Luther Vandross [   -2005] - So Amazing
TTITLE3=Boney M - Rivers Of Babylon
TTITLE4=Paul McCartney (1942-    ) - Silly Love Songs
TTITLE5=Rod Stewart - Maggie May
TTITLE6=Status Quo - Rockin' All Over The World
TTITLE7=Meat Loaf (Marvin Lee Aday) - Bat Ou Of Hell
TTITLE8=Richie, Lionel - Hello
TTITLE9=Kate Bush (1958-    ) - The Man With The Child In His Eyes
TTITLE10=Leo Sayer - When I Need You
TTITLE11=Michael Bolton - When A Man Loves A Woman
TTITLE12=Gladys Knight - Pips (The) - Midnight Train To Georgia
TTITLE13=David Essex (1947-    ) - Hold Me Close
TTITLE14=Spandau Ballet - True
TTITLE15=Elkie Brooks - No More The Fool
TTITLE16=Hot Chocolate - It Started With A Kiss
TTITLE17=Dionne Warwick - Heartbreaker
EXTD=
EXTT0=
EXTT1=
EXTT2=
EXTT3=
EXTT4=
EXTT5=
EXTT6=
EXTT7=
EXTT8=
EXTT9=
EXTT10=
EXTT11=
EXTT12=
EXTT13=
EXTT14=
EXTT15=
EXTT16=
EXTT17=
PLAYORDER=
